<?xml version="1.0" encoding="utf-8"?>
<!-- Generator: Adobe Illustrator 27.3.1, SVG Export Plug-In . SVG Version: 6.00 Build 0)  -->
<svg version="1.1" id="Layer_1" xmlns="http://www.w3.org/2000/svg" xmlns:xlink="http://www.w3.org/1999/xlink" x="0px" y="0px"
	 viewBox="0 0 1080 258.67" style="enable-background:new 0 0 1080 258.67;" xml:space="preserve">
<style type="text/css">
	.st0{fill:#231F20;}
	.st1{fill:#808184;}
	.st2{fill:none;stroke:#231F20;stroke-width:2.1919;stroke-miterlimit:10;}
</style>
<g>
	<g>
		<g>
			<path class="st0" d="M421.31,144.62v30.13h-2.57c-0.83-5.78-2.33-10.38-4.49-13.81c-2.16-3.42-5.23-6.14-9.22-8.16
				c-3.99-2.01-8.12-3.02-12.38-3.02c-4.82,0-8.81,1.36-11.96,4.08c-3.15,2.72-4.73,5.81-4.73,9.28c0,2.66,1,5.07,2.99,7.26
				c2.88,3.21,9.71,7.49,20.52,12.85c8.81,4.37,14.83,7.72,18.05,10.05c3.22,2.33,5.7,5.09,7.44,8.25c1.74,3.17,2.61,6.49,2.61,9.96
				c0,6.59-2.77,12.28-8.31,17.05c-5.54,4.78-12.67,7.16-21.39,7.16c-2.74,0-5.31-0.19-7.72-0.58c-1.44-0.21-4.42-1-8.94-2.34
				c-4.52-1.35-7.38-2.02-8.59-2.02c-1.16,0-2.08,0.32-2.75,0.96c-0.67,0.64-1.17,1.97-1.5,3.98h-2.57v-29.87h2.57
				c1.21,6.25,2.83,10.93,4.87,14.04c2.04,3.11,5.16,5.69,9.36,7.74c4.2,2.06,8.8,3.08,13.81,3.08c5.8,0,10.38-1.41,13.74-4.24
				c3.36-2.83,5.04-6.17,5.04-10.02c0-2.14-0.64-4.3-1.91-6.49c-1.28-2.18-3.26-4.22-5.95-6.1c-1.81-1.28-6.75-4.01-14.82-8.19
				c-8.07-4.17-13.81-7.5-17.22-9.99c-3.41-2.48-5.99-5.22-7.76-8.22c-1.76-3-2.64-6.29-2.64-9.89c0-6.25,2.6-11.64,7.79-16.15
				c5.19-4.52,11.8-6.78,19.82-6.78c5.01,0,10.32,1.13,15.93,3.4c2.6,1.07,4.43,1.61,5.5,1.61c1.21,0,2.19-0.33,2.96-1
				c0.76-0.66,1.38-2,1.84-4.01H421.31z"/>
			<path class="st0" d="M473.12,173.14c9.64,0,17.39,3.38,23.23,10.15c4.96,5.78,7.44,12.42,7.44,19.91c0,5.27-1.37,10.6-4.1,15.99
				c-2.74,5.4-6.5,9.46-11.3,12.2s-10.14,4.11-16.03,4.11c-9.6,0-17.23-3.53-22.88-10.6c-4.78-5.95-7.16-12.63-7.16-20.04
				c0-5.4,1.45-10.76,4.35-16.09s6.71-9.27,11.44-11.82C462.82,174.42,467.83,173.14,473.12,173.14z M470.96,177.32
				c-2.46,0-4.93,0.67-7.41,2.02c-2.48,1.35-4.49,3.72-6.02,7.1c-1.53,3.38-2.3,7.73-2.3,13.04c0,8.56,1.84,15.95,5.53,22.16
				c3.69,6.21,8.54,9.31,14.57,9.31c4.5,0,8.21-1.71,11.13-5.14c2.92-3.43,4.38-9.31,4.38-17.67c0-10.45-2.43-18.67-7.3-24.67
				C480.26,179.37,476.06,177.32,470.96,177.32z"/>
			<path class="st0" d="M537.37,142.38v78.04c0,3.68,0.29,6.12,0.87,7.32c0.58,1.2,1.47,2.11,2.68,2.73
				c1.21,0.62,3.45,0.93,6.75,0.93v2.31h-31.23v-2.31c2.92,0,4.91-0.28,5.98-0.83c1.07-0.56,1.9-1.48,2.5-2.76
				c0.6-1.29,0.9-3.75,0.9-7.39v-53.44c0-6.64-0.16-10.72-0.49-12.24c-0.33-1.52-0.85-2.56-1.57-3.12s-1.63-0.83-2.75-0.83
				c-1.21,0-2.74,0.34-4.59,1.03l-1.18-2.25l18.99-7.19H537.37z"/>
			<path class="st0" d="M613.17,174.88v35.65c0,6.81,0.17,10.97,0.52,12.49c0.35,1.52,0.9,2.58,1.67,3.18
				c0.77,0.6,1.66,0.9,2.68,0.9c1.44,0,3.06-0.36,4.87-1.09l0.97,2.25l-19.06,7.26h-3.13v-12.46c-5.47,5.48-9.65,8.93-12.52,10.34
				c-2.88,1.41-5.91,2.12-9.11,2.12c-3.57,0-6.67-0.95-9.29-2.86c-2.62-1.91-4.44-4.36-5.46-7.36c-1.02-3-1.53-7.24-1.53-12.72
				v-26.27c0-2.78-0.33-4.71-0.97-5.78c-0.65-1.07-1.61-1.9-2.89-2.47c-1.28-0.58-3.58-0.84-6.92-0.8v-2.38h22.33v39.38
				c0,5.48,1.03,9.08,3.09,10.79c2.06,1.71,4.56,2.57,7.48,2.57c1.99,0,4.25-0.58,6.78-1.73c2.53-1.16,5.53-3.36,9.01-6.62v-33.34
				c0-3.34-0.66-5.6-1.98-6.78s-4.07-1.81-8.24-1.9v-2.38H613.17z"/>
			<path class="st0" d="M649.33,155.54v19.33h14.89v4.5h-14.89v38.16c0,3.81,0.59,6.38,1.77,7.71c1.18,1.33,2.7,1.99,4.56,1.99
				c1.53,0,3.01-0.44,4.45-1.32c1.44-0.88,2.55-2.17,3.34-3.89h2.71c-1.62,4.2-3.92,7.35-6.89,9.47c-2.97,2.12-6.03,3.18-9.18,3.18
				c-2.13,0-4.22-0.55-6.26-1.64c-2.04-1.09-3.55-2.65-4.52-4.69c-0.97-2.03-1.46-5.17-1.46-9.41v-39.57h-10.09v-2.12
				c2.55-0.94,5.16-2.54,7.83-4.79c2.67-2.25,5.04-4.91,7.13-8c1.07-1.63,2.55-4.6,4.45-8.93H649.33z"/>
			<path class="st0" d="M694.67,173.14v47.28c0,3.68,0.29,6.13,0.87,7.36c0.58,1.22,1.44,2.13,2.57,2.73c1.14,0.6,3.21,0.9,6.23,0.9
				v2.31h-30.95v-2.31c3.11,0,5.19-0.28,6.26-0.83c1.07-0.56,1.91-1.48,2.54-2.76c0.63-1.29,0.94-3.75,0.94-7.39v-22.67
				c0-6.38-0.21-10.51-0.63-12.4c-0.33-1.37-0.83-2.32-1.53-2.86c-0.7-0.54-1.65-0.8-2.85-0.8c-1.3,0-2.88,0.32-4.73,0.96
				l-0.97-2.31l19.2-7.19H694.67z M688.89,142.38c1.95,0,3.6,0.63,4.97,1.9c1.37,1.26,2.05,2.79,2.05,4.59
				c0,1.8-0.69,3.34-2.05,4.62c-1.37,1.29-3.03,1.93-4.97,1.93c-1.95,0-3.62-0.64-5.01-1.93c-1.39-1.28-2.09-2.83-2.09-4.62
				c0-1.8,0.68-3.33,2.05-4.59C685.22,143.01,686.9,142.38,688.89,142.38z"/>
			<path class="st0" d="M745.7,173.14c9.64,0,17.39,3.38,23.23,10.15c4.96,5.78,7.44,12.42,7.44,19.91c0,5.27-1.37,10.6-4.1,15.99
				c-2.74,5.4-6.5,9.46-11.3,12.2s-10.14,4.11-16.03,4.11c-9.6,0-17.23-3.53-22.88-10.6c-4.78-5.95-7.16-12.63-7.16-20.04
				c0-5.4,1.45-10.76,4.35-16.09s6.71-9.27,11.44-11.82C735.41,174.42,740.42,173.14,745.7,173.14z M743.55,177.32
				c-2.46,0-4.93,0.67-7.41,2.02c-2.48,1.35-4.49,3.72-6.02,7.1c-1.53,3.38-2.3,7.73-2.3,13.04c0,8.56,1.84,15.95,5.53,22.16
				c3.69,6.21,8.54,9.31,14.57,9.31c4.5,0,8.21-1.71,11.13-5.14c2.92-3.43,4.38-9.31,4.38-17.67c0-10.45-2.43-18.67-7.3-24.67
				C752.84,179.37,748.65,177.32,743.55,177.32z"/>
			<path class="st0" d="M806.62,185.6c7.47-8.31,14.58-12.46,21.35-12.46c3.48,0,6.47,0.8,8.97,2.41c2.5,1.61,4.5,4.25,5.98,7.93
				c1.02,2.57,1.53,6.51,1.53,11.82v25.12c0,3.73,0.32,6.25,0.97,7.58c0.51,1.07,1.33,1.91,2.47,2.5c1.14,0.6,3.23,0.9,6.29,0.9
				v2.31h-31.51v-2.31h1.32c2.97,0,5.04-0.42,6.23-1.25c1.18-0.83,2.01-2.07,2.47-3.69c0.18-0.64,0.28-2.65,0.28-6.04v-24.09
				c0-5.35-0.75-9.24-2.26-11.66c-1.51-2.42-4.05-3.63-7.62-3.63c-5.52,0-11.01,2.78-16.49,8.35v31.02c0,3.98,0.25,6.45,0.77,7.39
				c0.65,1.24,1.54,2.15,2.68,2.73c1.14,0.58,3.44,0.87,6.92,0.87v2.31h-31.51v-2.31h1.39c3.25,0,5.44-0.76,6.57-2.28
				c1.14-1.52,1.7-4.42,1.7-8.7v-21.84c0-7.07-0.17-11.37-0.52-12.91c-0.35-1.54-0.88-2.59-1.6-3.15c-0.72-0.56-1.68-0.83-2.89-0.83
				c-1.3,0-2.85,0.32-4.66,0.96l-1.04-2.31l19.2-7.19h2.99V185.6z"/>
			<path class="st1" d="M869.76,224.86c1.55,0,2.85,0.5,3.9,1.48c1.05,0.99,1.58,2.18,1.58,3.58s-0.54,2.59-1.61,3.58
				c-1.07,0.99-2.37,1.48-3.88,1.48c-1.52,0-2.81-0.5-3.88-1.48c-1.07-0.99-1.61-2.18-1.61-3.58c0-1.43,0.54-2.63,1.61-3.61
				C866.95,225.35,868.24,224.86,869.76,224.86z"/>
			<path class="st1" d="M925.65,217.83c-1.22,5.51-3.61,9.75-7.17,12.71s-7.5,4.45-11.81,4.45c-5.14,0-9.62-1.99-13.44-5.98
				c-3.82-3.99-5.73-9.37-5.73-16.16c0-6.57,2.12-11.91,6.35-16.02c4.23-4.11,9.32-6.16,15.25-6.16c4.45,0,8.11,1.09,10.97,3.26
				c2.87,2.18,4.3,4.44,4.3,6.78c0,1.16-0.4,2.09-1.21,2.81c-0.81,0.72-1.94,1.07-3.39,1.07c-1.94,0-3.41-0.58-4.4-1.73
				c-0.56-0.64-0.93-1.86-1.11-3.65c-0.18-1.8-0.85-3.17-2-4.11c-1.15-0.91-2.75-1.37-4.79-1.37c-3.29,0-5.95,1.13-7.96,3.38
				c-2.67,2.98-4,6.92-4,11.82c0,4.99,1.33,9.4,3.98,13.21s6.24,5.73,10.75,5.73c3.23,0,6.13-1.02,8.7-3.06
				c1.81-1.4,3.57-3.94,5.29-7.62L925.65,217.83z"/>
			<path class="st1" d="M955.88,190.67c6.85,0,12.36,2.4,16.51,7.21c3.53,4.11,5.29,8.83,5.29,14.15c0,3.74-0.97,7.53-2.92,11.37
				c-1.94,3.83-4.62,6.73-8.03,8.67c-3.41,1.95-7.21,2.92-11.39,2.92c-6.82,0-12.24-2.51-16.26-7.53
				c-3.39-4.23-5.09-8.98-5.09-14.24c0-3.83,1.03-7.64,3.09-11.43c2.06-3.79,4.77-6.59,8.13-8.4
				C948.57,191.58,952.13,190.67,955.88,190.67z M954.35,193.64c-1.75,0-3.5,0.48-5.26,1.44c-1.76,0.96-3.19,2.64-4.28,5.04
				c-1.09,2.4-1.63,5.49-1.63,9.27c0,6.09,1.31,11.34,3.93,15.75c2.62,4.41,6.07,6.62,10.35,6.62c3.2,0,5.83-1.22,7.91-3.65
				c2.08-2.43,3.11-6.62,3.11-12.55c0-7.42-1.73-13.27-5.19-17.53C960.96,195.1,957.98,193.64,954.35,193.64z"/>
			<path class="st1" d="M999.42,199.58c3.29-3.04,5.24-4.79,5.83-5.25c1.48-1.16,3.08-2.05,4.79-2.69c1.71-0.64,3.41-0.96,5.09-0.96
				c2.83,0,5.27,0.76,7.31,2.28c2.04,1.52,3.41,3.73,4.1,6.62c3.39-3.65,6.26-6.05,8.6-7.19c2.34-1.14,4.75-1.71,7.22-1.71
				c2.41,0,4.54,0.57,6.4,1.71c1.86,1.14,3.34,3.01,4.42,5.59c0.72,1.76,1.09,4.53,1.09,8.31v17.98c0,2.62,0.21,4.41,0.64,5.39
				c0.33,0.67,0.94,1.24,1.83,1.71s2.34,0.71,4.35,0.71v1.64h-22.34v-1.64h0.94c1.94,0,3.46-0.35,4.55-1.05
				c0.76-0.49,1.3-1.26,1.63-2.33c0.13-0.52,0.2-1.99,0.2-4.43v-17.98c0-3.41-0.44-5.81-1.33-7.21c-1.29-1.95-3.34-2.92-6.18-2.92
				c-1.75,0-3.5,0.4-5.26,1.21s-3.9,2.3-6.4,4.5l-0.1,0.5l0.1,1.96v19.95c0,2.86,0.17,4.64,0.52,5.34s1,1.29,1.95,1.76
				c0.96,0.47,2.59,0.71,4.89,0.71v1.64h-22.88v-1.64c2.5,0,4.23-0.27,5.17-0.82c0.94-0.55,1.59-1.37,1.95-2.46
				c0.17-0.52,0.25-2.02,0.25-4.52v-17.98c0-3.41-0.54-5.86-1.63-7.35c-1.45-1.95-3.48-2.92-6.08-2.92c-1.78,0-3.54,0.44-5.29,1.32
				c-2.74,1.34-4.84,2.85-6.33,4.52v22.41c0,2.74,0.21,4.52,0.62,5.34c0.41,0.82,1.02,1.44,1.83,1.85c0.81,0.41,2.45,0.62,4.92,0.62
				v1.64h-22.39v-1.64c2.08,0,3.53-0.21,4.35-0.62c0.82-0.41,1.45-1.06,1.88-1.96c0.43-0.9,0.64-2.64,0.64-5.23v-15.97
				c0-4.59-0.15-7.56-0.45-8.9c-0.23-1-0.59-1.7-1.09-2.08c-0.49-0.38-1.17-0.57-2.03-0.57c-0.92,0-2.03,0.23-3.31,0.68l-0.74-1.64
				l13.64-5.11h2.12V199.58z"/>
		</g>
	</g>
	<g>
		<path class="st1" d="M37.98,116.03h31.14V98.32c0-3.16-0.21-5.25-0.64-6.25c-0.33-0.76-1.02-1.41-2.08-1.96
			c-1.42-0.73-2.92-1.1-4.5-1.1h-2.37v-1.69h28.67v1.69h-2.37c-1.58,0-3.08,0.35-4.5,1.05c-1.05,0.49-1.77,1.23-2.15,2.21
			c-0.38,0.99-0.57,3.01-0.57,6.05v39.94c0,3.13,0.21,5.2,0.64,6.21c0.33,0.76,1,1.42,2.03,1.96c1.45,0.73,2.97,1.1,4.55,1.1h2.37
			v1.69H59.53v-1.69h2.37c2.73,0,4.73-0.75,5.98-2.24c0.82-0.97,1.24-3.32,1.24-7.03V119.4H37.98v18.85c0,3.13,0.21,5.2,0.64,6.21
			c0.33,0.76,1.02,1.42,2.08,1.96c1.42,0.73,2.92,1.1,4.5,1.1h2.42v1.69H18.9v-1.69h2.37c2.77,0,4.78-0.75,6.03-2.24
			c0.79-0.97,1.19-3.32,1.19-7.03V98.32c0-3.16-0.21-5.25-0.64-6.25c-0.33-0.76-1-1.41-2.03-1.96c-1.45-0.73-2.97-1.1-4.55-1.1H18.9
			v-1.69h28.72v1.69h-2.42c-1.58,0-3.08,0.35-4.5,1.05c-1.02,0.49-1.73,1.23-2.13,2.21c-0.4,0.99-0.59,3.01-0.59,6.05V116.03z"/>
		<path class="st1" d="M120.71,143.18c-4.65,3.32-7.56,5.23-8.75,5.75c-1.78,0.76-3.67,1.14-5.68,1.14c-3.13,0-5.71-0.99-7.74-2.97
			c-2.03-1.98-3.04-4.58-3.04-7.81c0-2.04,0.49-3.8,1.48-5.29c1.35-2.07,3.7-4.02,7.04-5.84c3.34-1.83,8.91-4.05,16.68-6.66v-1.64
			c0-4.17-0.72-7.03-2.15-8.58c-1.43-1.55-3.52-2.33-6.25-2.33c-2.08,0-3.72,0.52-4.94,1.55c-1.25,1.04-1.88,2.22-1.88,3.56
			l0.1,2.65c0,1.4-0.39,2.48-1.16,3.24c-0.77,0.76-1.79,1.14-3.04,1.14c-1.22,0-2.22-0.4-2.99-1.19c-0.78-0.79-1.16-1.87-1.16-3.24
			c0-2.62,1.45-5.02,4.35-7.21s6.97-3.29,12.21-3.29c4.02,0,7.32,0.62,9.89,1.87c1.94,0.94,3.38,2.42,4.3,4.43
			c0.59,1.31,0.89,3.99,0.89,8.03v14.19c0,3.99,0.08,6.43,0.25,7.33c0.17,0.9,0.44,1.5,0.82,1.8c0.38,0.3,0.82,0.46,1.31,0.46
			c0.53,0,0.99-0.11,1.38-0.32c0.69-0.4,2.03-1.51,4-3.33v2.56c-3.69,4.56-7.22,6.85-10.58,6.85c-1.61,0-2.9-0.52-3.85-1.55
			C121.23,147.44,120.74,145.68,120.71,143.18z M120.71,140.22v-15.93c-4.98,1.83-8.19,3.12-9.64,3.88c-2.6,1.34-4.47,2.74-5.58,4.2
			c-1.12,1.46-1.68,3.06-1.68,4.79c0,2.19,0.71,4.01,2.12,5.45c1.42,1.45,3.05,2.17,4.89,2.17
			C113.32,144.78,116.62,143.26,120.71,140.22z"/>
		<path class="st1" d="M138.34,111.55l13.94-5.2h1.88v9.77c2.34-3.68,4.69-6.26,7.04-7.74c2.36-1.48,4.84-2.21,7.44-2.21
			c4.55,0,8.34,1.64,11.37,4.93c3.72,4.02,5.59,9.25,5.59,15.7c0,7.21-2.24,13.18-6.72,17.89c-3.69,3.86-8.34,5.8-13.94,5.8
			c-2.44,0-4.55-0.32-6.33-0.96c-1.32-0.46-2.8-1.37-4.45-2.74v12.73c0,2.86,0.19,4.68,0.57,5.45c0.38,0.78,1.04,1.39,1.98,1.85
			c0.94,0.46,2.64,0.68,5.12,0.68v1.69h-23.72v-1.69h1.24c1.81,0.03,3.36-0.29,4.65-0.96c0.62-0.34,1.11-0.88,1.46-1.62
			c0.35-0.75,0.52-2.64,0.52-5.68v-39.53c0-2.71-0.13-4.43-0.4-5.16c-0.26-0.73-0.68-1.28-1.26-1.64c-0.58-0.37-1.36-0.55-2.35-0.55
			c-0.79,0-1.8,0.21-3.02,0.64L138.34,111.55z M154.16,118.81v15.61c0,3.38,0.15,5.6,0.44,6.66c0.46,1.77,1.59,3.32,3.39,4.66
			c1.8,1.34,4.06,2.01,6.8,2.01c3.29,0,5.96-1.19,8.01-3.56c2.67-3.1,4-7.47,4-13.1c0-6.39-1.52-11.3-4.55-14.74
			c-2.11-2.37-4.61-3.56-7.51-3.56c-1.58,0-3.15,0.37-4.7,1.1C158.85,114.43,156.89,116.07,154.16,118.81z"/>
		<path class="st1" d="M190.57,111.55l13.94-5.2h1.88v9.77c2.34-3.68,4.69-6.26,7.04-7.74c2.36-1.48,4.84-2.21,7.44-2.21
			c4.55,0,8.34,1.64,11.37,4.93c3.72,4.02,5.59,9.25,5.59,15.7c0,7.21-2.24,13.18-6.72,17.89c-3.69,3.86-8.34,5.8-13.94,5.8
			c-2.44,0-4.55-0.32-6.33-0.96c-1.32-0.46-2.8-1.37-4.45-2.74v12.73c0,2.86,0.19,4.68,0.57,5.45c0.38,0.78,1.04,1.39,1.98,1.85
			c0.94,0.46,2.64,0.68,5.12,0.68v1.69h-23.72v-1.69h1.24c1.81,0.03,3.36-0.29,4.65-0.96c0.62-0.34,1.11-0.88,1.46-1.62
			c0.35-0.75,0.52-2.64,0.52-5.68v-39.53c0-2.71-0.13-4.43-0.4-5.16c-0.26-0.73-0.68-1.28-1.26-1.64c-0.58-0.37-1.36-0.55-2.35-0.55
			c-0.79,0-1.8,0.21-3.02,0.64L190.57,111.55z M206.39,118.81v15.61c0,3.38,0.15,5.6,0.44,6.66c0.46,1.77,1.59,3.32,3.39,4.66
			c1.8,1.34,4.06,2.01,6.8,2.01c3.29,0,5.96-1.19,8.01-3.56c2.67-3.1,4-7.47,4-13.1c0-6.39-1.52-11.3-4.55-14.74
			c-2.11-2.37-4.61-3.56-7.51-3.56c-1.58,0-3.15,0.37-4.7,1.1C211.08,114.43,209.12,116.07,206.39,118.81z"/>
		<path class="st1" d="M243.5,107.4h21.11v1.69h-1.04c-1.48,0-2.59,0.3-3.34,0.89c-0.74,0.59-1.11,1.33-1.11,2.21
			c0,1.19,0.54,2.83,1.63,4.93l11.02,21.09l10.13-23.1c0.56-1.25,0.84-2.48,0.84-3.7c0-0.55-0.12-0.96-0.35-1.23
			c-0.26-0.33-0.68-0.6-1.24-0.8c-0.56-0.2-1.55-0.3-2.96-0.3v-1.69h14.73v1.69c-1.22,0.12-2.16,0.36-2.82,0.73
			s-1.38,1.05-2.17,2.05c-0.3,0.43-0.86,1.6-1.68,3.51l-18.44,41.72c-1.78,4.05-4.11,7.1-6.99,9.17c-2.88,2.07-5.66,3.1-8.33,3.1
			c-1.94,0-3.54-0.52-4.79-1.55s-1.88-2.22-1.88-3.56c0-1.28,0.45-2.31,1.36-3.08c0.91-0.78,2.15-1.16,3.73-1.16
			c1.09,0,2.57,0.33,4.45,1c1.32,0.46,2.14,0.68,2.47,0.68c0.99,0,2.07-0.47,3.24-1.42s2.35-2.77,3.53-5.48l3.21-7.26l-16.26-31.54
			c-0.49-0.94-1.29-2.11-2.37-3.51c-0.82-1.06-1.5-1.78-2.03-2.15c-0.76-0.49-1.98-0.91-3.66-1.28V107.4z"/>
	</g>
	<g>
		<g>
			<path class="st0" d="M445.32,25.22l2.16,29.61h-2.16c-2.88-8.86-6.98-15.24-12.31-19.14c-5.33-3.9-11.73-5.85-19.2-5.85
				c-6.26,0-11.92,1.47-16.97,4.4c-5.05,2.93-9.03,7.61-11.93,14.03c-2.9,6.42-4.35,14.41-4.35,23.96c0,7.88,1.37,14.71,4.1,20.49
				c2.74,5.78,6.85,10.21,12.35,13.3c5.5,3.08,11.77,4.62,18.82,4.62c6.12,0,11.52-1.21,16.21-3.63c4.68-2.42,9.83-7.23,15.44-14.42
				l2.16,1.28c-4.73,7.75-10.25,13.42-16.55,17.02c-6.31,3.6-13.8,5.4-22.47,5.4c-15.63,0-27.73-5.35-36.31-16.06
				c-6.4-7.96-9.6-17.34-9.6-28.13c0-8.69,2.11-16.68,6.33-23.96c4.22-7.28,10.03-12.92,17.42-16.93c7.4-4,15.48-6.01,24.24-6.01
				c6.82,0,13.54,1.54,20.17,4.62c1.95,0.94,3.34,1.41,4.17,1.41c1.25,0,2.34-0.41,3.27-1.22c1.21-1.16,2.06-2.76,2.57-4.82H445.32z
				"/>
			<path class="st0" d="M492.47,53.74c9.64,0,17.39,3.38,23.23,10.15c4.96,5.78,7.44,12.42,7.44,19.91c0,5.27-1.37,10.6-4.1,15.99
				c-2.74,5.4-6.5,9.46-11.3,12.2c-4.8,2.74-10.14,4.11-16.03,4.11c-9.6,0-17.23-3.53-22.88-10.6c-4.78-5.95-7.16-12.63-7.16-20.04
				c0-5.4,1.45-10.76,4.35-16.09s6.71-9.27,11.44-11.82C482.17,55.01,487.18,53.74,492.47,53.74z M490.31,57.91
				c-2.46,0-4.93,0.67-7.41,2.02c-2.48,1.35-4.49,3.72-6.02,7.1c-1.53,3.38-2.3,7.73-2.3,13.04c0,8.57,1.84,15.95,5.53,22.16
				c3.69,6.21,8.54,9.31,14.57,9.31c4.5,0,8.21-1.71,11.13-5.14c2.92-3.43,4.38-9.31,4.38-17.66c0-10.45-2.43-18.67-7.3-24.67
				C499.61,59.97,495.41,57.91,490.31,57.91z"/>
			<path class="st0" d="M590.67,55.47v35.65c0,6.81,0.17,10.97,0.52,12.49c0.35,1.52,0.9,2.58,1.67,3.18c0.77,0.6,1.66,0.9,2.68,0.9
				c1.44,0,3.06-0.36,4.87-1.09l0.97,2.25l-19.06,7.26h-3.13v-12.46c-5.47,5.48-9.65,8.93-12.52,10.34
				c-2.88,1.41-5.91,2.12-9.11,2.12c-3.57,0-6.67-0.95-9.29-2.86c-2.62-1.9-4.44-4.36-5.46-7.35c-1.02-3-1.53-7.24-1.53-12.72V66.9
				c0-2.78-0.33-4.71-0.97-5.78c-0.65-1.07-1.61-1.9-2.89-2.47c-1.28-0.58-3.58-0.85-6.92-0.8v-2.38h22.33v39.38
				c0,5.48,1.03,9.08,3.09,10.79c2.06,1.71,4.56,2.57,7.48,2.57c1.99,0,4.25-0.58,6.78-1.73c2.53-1.16,5.53-3.36,9.01-6.62V66.52
				c0-3.34-0.66-5.6-1.98-6.78c-1.32-1.18-4.07-1.81-8.24-1.89v-2.38H590.67z"/>
			<path class="st0" d="M603.73,61.31l19.62-7.32h2.64v13.75c3.29-5.18,6.6-8.81,9.91-10.89c3.32-2.08,6.8-3.12,10.47-3.12
				c6.4,0,11.73,2.31,16,6.94c5.24,5.65,7.86,13.02,7.86,22.1c0,10.15-3.15,18.54-9.46,25.18c-5.19,5.44-11.73,8.16-19.62,8.16
				c-3.43,0-6.4-0.45-8.9-1.35c-1.86-0.64-3.94-1.93-6.26-3.85v17.92c0,4.02,0.27,6.58,0.8,7.68c0.53,1.09,1.46,1.96,2.78,2.6
				c1.32,0.64,3.72,0.96,7.2,0.96v2.38h-33.39v-2.38h1.74c2.55,0.04,4.73-0.41,6.54-1.35c0.88-0.47,1.56-1.23,2.05-2.28
				c0.49-1.05,0.73-3.72,0.73-8V72.81c0-3.81-0.19-6.23-0.56-7.26c-0.37-1.03-0.96-1.8-1.77-2.31c-0.81-0.51-1.91-0.77-3.3-0.77
				c-1.11,0-2.53,0.3-4.24,0.9L603.73,61.31z M625.99,71.53V93.5c0,4.75,0.21,7.88,0.63,9.38c0.65,2.48,2.24,4.67,4.77,6.55
				c2.53,1.88,5.71,2.83,9.56,2.83c4.64,0,8.39-1.67,11.27-5.01c3.76-4.37,5.63-10.51,5.63-18.44c0-8.99-2.13-15.91-6.4-20.75
				c-2.97-3.34-6.49-5.01-10.57-5.01c-2.23,0-4.43,0.51-6.61,1.54C632.59,65.36,629.83,67.67,625.99,71.53z"/>
			<path class="st0" d="M703.74,22.97v78.04c0,3.68,0.29,6.12,0.87,7.32c0.58,1.2,1.47,2.11,2.68,2.73
				c1.21,0.62,3.45,0.93,6.75,0.93v2.31H682.8V112c2.92,0,4.91-0.28,5.98-0.83c1.07-0.56,1.9-1.48,2.5-2.76
				c0.6-1.28,0.9-3.75,0.9-7.39V47.57c0-6.64-0.16-10.72-0.49-12.24c-0.33-1.52-0.85-2.56-1.57-3.12c-0.72-0.56-1.63-0.84-2.75-0.84
				c-1.21,0-2.74,0.34-4.59,1.03l-1.18-2.25l18.99-7.19H703.74z"/>
			<path class="st0" d="M734.4,77.63c-0.05,8.74,2.25,15.59,6.89,20.56c4.64,4.97,10.09,7.45,16.35,7.45c4.17,0,7.8-1.06,10.89-3.18
				c3.08-2.12,5.67-5.75,7.76-10.89l2.16,1.28c-0.97,5.87-3.8,11.21-8.49,16.03c-4.68,4.82-10.55,7.23-17.6,7.23
				c-7.65,0-14.2-2.75-19.65-8.25c-5.45-5.5-8.17-12.9-8.17-22.19c0-10.06,2.79-17.91,8.38-23.54c5.59-5.63,12.6-8.45,21.04-8.45
				c7.14,0,13.01,2.17,17.6,6.52c4.59,4.35,6.89,10.16,6.89,17.44H734.4z M734.4,73.9h29.49c-0.23-3.77-0.72-6.42-1.46-7.96
				c-1.16-2.4-2.89-4.28-5.18-5.65c-2.3-1.37-4.7-2.06-7.2-2.06c-3.85,0-7.29,1.38-10.33,4.14C736.68,65.14,734.91,68.98,734.4,73.9
				z"/>
		</g>
	</g>
	<line class="st2" x1="325.13" y1="23.68" x2="325.13" y2="239.26"/>
</g>
</svg>
